<?xml version="1.0" encoding="UTF-8" standalone="no"?>
<svg
   id="Layer_1"
   data-name="Layer 1"
   viewBox="0 0 534.52368 311.55481"
   version="1.1"
   sodipodi:docname="logo-white.svg"
   width="534.52368"
   height="311.55481"
   inkscape:version="1.2.1 (9c6d41e, 2022-07-14)"
   xmlns:inkscape="http://www.inkscape.org/namespaces/inkscape"
   xmlns:sodipodi="http://sodipodi.sourceforge.net/DTD/sodipodi-0.dtd"
   xmlns="http://www.w3.org/2000/svg"
   xmlns:svg="http://www.w3.org/2000/svg"
   xmlns:rdf="http://www.w3.org/1999/02/22-rdf-syntax-ns#"
   xmlns:cc="http://creativecommons.org/ns#"
   xmlns:dc="http://purl.org/dc/elements/1.1/">
  <sodipodi:namedview
     id="namedview26"
     pagecolor="#ffffff"
     bordercolor="#000000"
     borderopacity="0.25"
     inkscape:showpageshadow="2"
     inkscape:pageopacity="0.0"
     inkscape:pagecheckerboard="0"
     inkscape:deskcolor="#d1d1d1"
     showgrid="false"
     inkscape:zoom="0.49166667"
     inkscape:cx="697.62712"
     inkscape:cy="156.61017"
     inkscape:window-width="1512"
     inkscape:window-height="846"
     inkscape:window-x="0"
     inkscape:window-y="38"
     inkscape:window-maximized="0"
     inkscape:current-layer="Layer_1" />
  <defs
     id="defs4">
    <style
       id="style2">.cls-1{fill:#fff;}</style>
  </defs>
  <title
     id="title6">Cognite</title>
  <g
     id="Group_6673"
     data-name="Group 6673"
     transform="translate(-57.388362,-84.224541)">
    <path
       id="Path_1966"
       data-name="Path 1966"
       class="cls-1"
       d="m 478.75,212.32 v -27.06 a 23.57,23.57 0 0 0 -47.13,0 v 34.35 c -13.59,3.13 -29.28,6.25 -45,9.38 V 107.14 A 23.44,23.44 0 0 0 362.68,84.23 h -0.12 a 23.2,23.2 0 0 0 -23,22.91 v 133.33 a 8,8 0 0 0 -4.18,1 c -14.64,3.12 -28.24,6.25 -41.9,9.37 V 147.78 a 23.03,23.03 0 0 0 -46.06,0 v 113.46 c -16.74,3.15 -31.42,6.26 -46,8.34 v -53.1 a 23.035,23.035 0 1 0 -46.07,0 v 59.35 C 103,282.08 72.64,280 69.48,270.59 62.17,254.96 110.31,233.06 123.9,225.82 v -1 h -1 c -13.6,5.19 -72.21,29.14 -64.88,50 7.31,22.92 97.32,29.17 284.66,-16.66 157,-38.53 229.21,-45.82 236.54,-31.24 5.24,12.48 -33.5,36.45 -71.16,53.12 a 3.75,3.75 0 0 0 -1,3.1 c 1,1.05 2.08,2.09 3.14,1.05 13.59,-5.24 84.77,-35.39 81.61,-60.4 -3.11,-16.65 -40.8,-21.86 -113,-11.45 M 155.58,321.93 v 17.46 a 22.79,22.79 0 0 0 45.57,0 v -22.6 a 412.54,412.54 0 0 1 -45.57,5.15 m 92,-12.89 v 63.49 a 22.794344,22.794344 0 0 0 45.58,0.89 v -73.75 a 391,391 0 0 1 -45.58,9.37" />
    <path
       id="Path_1967"
       data-name="Path 1967"
       class="cls-1"
       d="m 342.71,289.54 h -3.14 v 44.61 a 23.65,23.65 0 0 0 47.27,0 v -55 c -13.66,3.13 -28.35,6.23 -44.13,10.39 m 88.85,-20.73 v 26.92 a 23.41,23.41 0 0 0 24,22.76 h 0.14 a 23.14,23.14 0 0 0 23.07,-22.75 v -36.22 q -20.47,4.64 -47.29,9.3" />
  </g>
  <metadata
     id="metadata202">
    <rdf:RDF>
      <cc:Work
         rdf:about="">
        <dc:title>Cognite</dc:title>
      </cc:Work>
    </rdf:RDF>
  </metadata>
</svg>
